<svg width="144" height="144" viewBox="0 0 144 144" fill="none" xmlns="http://www.w3.org/2000/svg">
<path fill-rule="evenodd" clip-rule="evenodd" d="M72 141C110.108 141 141 110.108 141 72C141 33.8924 110.108 3 72 3C33.8924 3 3 33.8924 3 72C3 110.108 33.8924 141 72 141ZM72 144C111.765 144 144 111.765 144 72C144 32.2355 111.765 0 72 0C32.2355 0 0 32.2355 0 72C0 111.765 32.2355 144 72 144Z" fill="black"/>
<path d="M138 74C138 86.1503 128.15 96 116 96C103.85 96 94 86.1503 94 74C94 61.8497 103.85 52 116 52C128.15 52 138 61.8497 138 74Z" fill="black"/>
<path fill-rule="evenodd" clip-rule="evenodd" d="M41 59C51.4934 59 60 50.4934 60 40C60 29.5066 51.4934 21 41 21C30.5066 21 22 29.5066 22 40C22 50.4934 30.5066 59 41 59ZM41 62C53.1503 62 63 52.1503 63 40C63 27.8497 53.1503 18 41 18C28.8497 18 19 27.8497 19 40C19 52.1503 28.8497 62 41 62Z" fill="black"/>
<path fill-rule="evenodd" clip-rule="evenodd" d="M27 87C37.4934 87 46 78.4934 46 68C46 57.5066 37.4934 49 27 49C16.5066 49 8 57.5066 8 68C8 78.4934 16.5066 87 27 87ZM27 90C39.1503 90 49 80.1503 49 68C49 55.8497 39.1503 46 27 46C14.8497 46 5 55.8497 5 68C5 80.1503 14.8497 90 27 90Z" fill="black"/>
</svg>
